solid com.sketchup.SketchUp.2023
facet normal -0.7071067690849304 0.7071067690849304 1.067801581747588e-13
  outer loop
    vertex 29.91413307189941 32.81470108032227 18.88199996948242
    vertex 30.1852970123291 33.08586883544922 17.98200035095215
    vertex 29.91413307189941 32.81470108032227 17.98200035095215
  endloop
endfacet
facet normal -0.7071067690849304 0.7071067690849304 1.067801581747588e-13
  outer loop
    vertex 30.1852970123291 33.08586883544922 17.98200035095215
    vertex 29.91413307189941 32.81470108032227 18.88199996948242
    vertex 30.1852970123291 33.08586883544922 18.88199996948242
  endloop
endfacet
facet normal -0.258819043636322 0.9659258127212524 2.147919022548253e-14
  outer loop
    vertex 29 32.36503219604492 18.88199996948242
    vertex 29.25244522094727 32.43267440795898 17.98200035095215
    vertex 29 32.36503219604492 17.73200035095215
  endloop
endfacet
facet normal -0.258819043636322 0.9659258127212524 2.147919022548253e-14
  outer loop
    vertex 29.25244522094727 32.43267440795898 17.98200035095215
    vertex 29 32.36503219604492 18.88199996948242
    vertex 29.25244522094727 32.43267440795898 18.88199996948242
  endloop
endfacet
facet normal -0.8191520571708679 0.5735764503479004 1.28762587614864e-13
  outer loop
    vertex 30.1852970123291 33.08586883544922 18.88199996948242
    vertex 30.4052562713623 33.40000152587891 17.98200035095215
    vertex 30.1852970123291 33.08586883544922 17.98200035095215
  endloop
endfacet
facet normal -0.8191520571708679 0.5735764503479004 1.28762587614864e-13
  outer loop
    vertex 30.4052562713623 33.40000152587891 17.98200035095215
    vertex 30.1852970123291 33.08586883544922 18.88199996948242
    vertex 30.4052562713623 33.40000152587891 18.88199996948242
  endloop
endfacet
facet normal -0.5735764503479004 0.8191520571708679 8.669066441265028e-14
  outer loop
    vertex 29.60000038146973 32.59474563598633 18.88199996948242
    vertex 29.91413307189941 32.81470108032227 17.98200035095215
    vertex 29.60000038146973 32.59474563598633 17.98200035095215
  endloop
endfacet
facet normal -0.5735764503479004 0.8191520571708679 8.669066441265028e-14
  outer loop
    vertex 29.91413307189941 32.81470108032227 17.98200035095215
    vertex 29.60000038146973 32.59474563598633 18.88199996948242
    vertex 29.91413307189941 32.81470108032227 18.88199996948242
  endloop
endfacet
facet normal -0.8191520571708679 -0.5735764503479004 1.275086806973302e-13
  outer loop
    vertex 30.4052562713623 35.59999847412109 18.88199996948242
    vertex 30.1852970123291 35.91413116455078 17.98200035095215
    vertex 30.4052562713623 35.59999847412109 17.98200035095215
  endloop
endfacet
facet normal -0.8191520571708679 -0.5735764503479004 1.275086806973302e-13
  outer loop
    vertex 30.1852970123291 35.91413116455078 17.98200035095215
    vertex 30.4052562713623 35.59999847412109 18.88199996948242
    vertex 30.1852970123291 35.91413116455078 18.88199996948242
  endloop
endfacet
facet normal -0.9063078165054321 -0.4226182699203491 1.364560862308212e-13
  outer loop
    vertex 30.56732368469238 35.25244522094727 18.88199996948242
    vertex 30.4052562713623 35.59999847412109 17.98200035095215
    vertex 30.56732368469238 35.25244522094727 17.98200035095215
  endloop
endfacet
facet normal -0.9063078165054321 -0.4226182699203491 1.364560862308212e-13
  outer loop
    vertex 30.4052562713623 35.59999847412109 17.98200035095215
    vertex 30.56732368469238 35.25244522094727 18.88199996948242
    vertex 30.4052562713623 35.59999847412109 18.88199996948242
  endloop
endfacet
facet normal -0.4226182699203491 0.9063078165054321 6.661761664224566e-14
  outer loop
    vertex 29.25244522094727 32.43267440795898 18.88199996948242
    vertex 29.60000038146973 32.59474563598633 17.98200035095215
    vertex 29.25244522094727 32.43267440795898 17.98200035095215
  endloop
endfacet
facet normal -0.4226182699203491 0.9063078165054321 6.661761664224566e-14
  outer loop
    vertex 29.60000038146973 32.59474563598633 17.98200035095215
    vertex 29.25244522094727 32.43267440795898 18.88199996948242
    vertex 29.60000038146973 32.59474563598633 18.88199996948242
  endloop
endfacet
facet normal -0.9659258127212524 0.258819043636322 1.517013917913188e-13
  outer loop
    vertex 30.56732368469238 33.74755477905273 18.88199996948242
    vertex 30.66657638549805 34.11797332763672 17.98200035095215
    vertex 30.56732368469238 33.74755477905273 17.98200035095215
  endloop
endfacet
facet normal -0.9659258127212524 0.258819043636322 1.517013917913188e-13
  outer loop
    vertex 30.66657638549805 34.11797332763672 17.98200035095215
    vertex 30.56732368469238 33.74755477905273 18.88199996948242
    vertex 30.66657638549805 34.11797332763672 18.88199996948242
  endloop
endfacet
facet normal -0.9961947202682495 -0.08715574443340302 1.563458428477035e-13
  outer loop
    vertex 30.70000076293945 34.5 18.88199996948242
    vertex 30.66657638549805 34.88202667236328 17.98200035095215
    vertex 30.70000076293945 34.5 17.98200035095215
  endloop
endfacet
facet normal -0.9961947202682495 -0.08715574443340302 1.563458428477035e-13
  outer loop
    vertex 30.66657638549805 34.88202667236328 17.98200035095215
    vertex 30.70000076293945 34.5 18.88199996948242
    vertex 30.66657638549805 34.88202667236328 18.88199996948242
  endloop
endfacet
facet normal -0.9961947202682495 0.08715574443340302 1.563990229642639e-13
  outer loop
    vertex 30.66657638549805 34.11797332763672 18.88199996948242
    vertex 30.70000076293945 34.5 17.98200035095215
    vertex 30.66657638549805 34.11797332763672 17.98200035095215
  endloop
endfacet
facet normal -0.9961947202682495 0.08715574443340302 1.563990229642639e-13
  outer loop
    vertex 30.70000076293945 34.5 17.98200035095215
    vertex 30.66657638549805 34.11797332763672 18.88199996948242
    vertex 30.70000076293945 34.5 18.88199996948242
  endloop
endfacet
facet normal -0.9659258127212524 -0.258819043636322 1.515434777448962e-13
  outer loop
    vertex 30.66657638549805 34.88202667236328 18.88199996948242
    vertex 30.56732368469238 35.25244522094727 17.98200035095215
    vertex 30.66657638549805 34.88202667236328 17.98200035095215
  endloop
endfacet
facet normal -0.9659258127212524 -0.258819043636322 1.515434777448962e-13
  outer loop
    vertex 30.56732368469238 35.25244522094727 17.98200035095215
    vertex 30.66657638549805 34.88202667236328 18.88199996948242
    vertex 30.56732368469238 35.25244522094727 18.88199996948242
  endloop
endfacet
facet normal -0.7071067690849304 -0.7071067690849304 1.052419734475993e-13
  outer loop
    vertex 30.1852970123291 35.91413116455078 17.98200035095215
    vertex 29.91413307189941 36.18529891967773 18.88199996948242
    vertex 29.91413307189941 36.18529891967773 17.98200035095215
  endloop
endfacet
facet normal -0.7071067690849304 -0.7071067690849304 1.052419734475993e-13
  outer loop
    vertex 29.91413307189941 36.18529891967773 18.88199996948242
    vertex 30.1852970123291 35.91413116455078 17.98200035095215
    vertex 30.1852970123291 35.91413116455078 18.88199996948242
  endloop
endfacet
facet normal -0.9063078165054321 0.4226182699203491 1.367139366124925e-13
  outer loop
    vertex 30.4052562713623 33.40000152587891 18.88199996948242
    vertex 30.56732368469238 33.74755477905273 17.98200035095215
    vertex 30.4052562713623 33.40000152587891 17.98200035095215
  endloop
endfacet
facet normal -0.9063078165054321 0.4226182699203491 1.367139366124925e-13
  outer loop
    vertex 30.56732368469238 33.74755477905273 17.98200035095215
    vertex 30.4052562713623 33.40000152587891 18.88199996948242
    vertex 30.56732368469238 33.74755477905273 18.88199996948242
  endloop
endfacet
facet normal -0.5735764503479004 -0.8191520571708679 8.619088109245235e-14
  outer loop
    vertex 29.91413307189941 36.18529891967773 17.98200035095215
    vertex 29.60000038146973 36.40525436401367 18.88199996948242
    vertex 29.60000038146973 36.40525436401367 17.98200035095215
  endloop
endfacet
facet normal -0.5735764503479004 -0.8191520571708679 8.619088109245235e-14
  outer loop
    vertex 29.60000038146973 36.40525436401367 18.88199996948242
    vertex 29.91413307189941 36.18529891967773 17.98200035095215
    vertex 29.91413307189941 36.18529891967773 18.88199996948242
  endloop
endfacet
facet normal -0.4226182699203491 -0.9063078165054321 6.606009278009931e-14
  outer loop
    vertex 29.60000038146973 36.40525436401367 17.98200035095215
    vertex 29.25244522094727 36.56732559204102 18.88199996948242
    vertex 29.25244522094727 36.56732559204102 17.98200035095215
  endloop
endfacet
facet normal -0.4226182699203491 -0.9063078165054321 6.606009278009931e-14
  outer loop
    vertex 29.25244522094727 36.56732559204102 18.88199996948242
    vertex 29.60000038146973 36.40525436401367 17.98200035095215
    vertex 29.60000038146973 36.40525436401367 18.88199996948242
  endloop
endfacet
facet normal -0.258819043636322 -0.9659258127212524 2.089368378289068e-14
  outer loop
    vertex 29.25244522094727 36.56732559204102 17.98200035095215
    vertex 29 36.63496780395508 18.88199996948242
    vertex 29 36.63496780395508 17.73200035095215
  endloop
endfacet
facet normal -0.258819043636322 -0.9659258127212524 2.089368378289068e-14
  outer loop
    vertex 29 36.63496780395508 18.88199996948242
    vertex 29.25244522094727 36.56732559204102 17.98200035095215
    vertex 29.25244522094727 36.56732559204102 18.88199996948242
  endloop
endfacet
facet normal 0.258819043636322 -0.9659258127212524 -8.932157246374466e-15
  outer loop
    vertex 28 36.63496780395508 17.73200035095215
    vertex 27.74755477905273 36.56732559204102 18.88199996948242
    vertex 27.74755477905273 36.56732559204102 17.98200035095215
  endloop
endfacet
facet normal 0.258819043636322 -0.9659258127212524 -8.932157246374466e-15
  outer loop
    vertex 27.74755477905273 36.56732559204102 18.88199996948242
    vertex 28 36.63496780395508 17.73200035095215
    vertex 28 36.63496780395508 18.88199996948242
  endloop
endfacet
facet normal 3.050615364618168e-16 -3.050615364618168e-16 1
  outer loop
    vertex 27.39999961853027 36.40525436401367 17.98200035095215
    vertex 27.74755477905273 32.43267440795898 17.98200035095215
    vertex 27.74755477905273 36.56732559204102 17.98200035095215
  endloop
endfacet
facet normal 3.050615364618168e-16 -3.050615364618168e-16 1
  outer loop
    vertex 27.74755477905273 32.43267440795898 17.98200035095215
    vertex 27.39999961853027 36.40525436401367 17.98200035095215
    vertex 27.08586692810059 36.18529891967773 17.98200035095215
  endloop
endfacet
facet normal 3.050615364618168e-16 -3.050615364618168e-16 1
  outer loop
    vertex 27.74755477905273 32.43267440795898 17.98200035095215
    vertex 27.08586692810059 36.18529891967773 17.98200035095215
    vertex 26.8147029876709 35.91413116455078 17.98200035095215
  endloop
endfacet
facet normal 3.050615364618168e-16 -3.050615364618168e-16 1
  outer loop
    vertex 27.74755477905273 32.43267440795898 17.98200035095215
    vertex 26.8147029876709 35.91413116455078 17.98200035095215
    vertex 26.5947437286377 35.59999847412109 17.98200035095215
  endloop
endfacet
facet normal 3.050615364618168e-16 -3.050615364618168e-16 1
  outer loop
    vertex 27.74755477905273 32.43267440795898 17.98200035095215
    vertex 26.5947437286377 35.59999847412109 17.98200035095215
    vertex 26.43267631530762 35.25244522094727 17.98200035095215
  endloop
endfacet
facet normal 3.050615364618168e-16 -3.050615364618168e-16 1
  outer loop
    vertex 27.74755477905273 32.43267440795898 17.98200035095215
    vertex 26.43267631530762 35.25244522094727 17.98200035095215
    vertex 26.33342361450195 34.88202667236328 17.98200035095215
  endloop
endfacet
facet normal 3.050615364618168e-16 -3.050615364618168e-16 1
  outer loop
    vertex 27.74755477905273 32.43267440795898 17.98200035095215
    vertex 26.33342361450195 34.88202667236328 17.98200035095215
    vertex 26.29999923706055 34.5 17.98200035095215
  endloop
endfacet
facet normal 3.050615364618168e-16 -3.050615364618168e-16 1
  outer loop
    vertex 27.74755477905273 32.43267440795898 17.98200035095215
    vertex 26.29999923706055 34.5 17.98200035095215
    vertex 26.33342361450195 34.11797332763672 17.98200035095215
  endloop
endfacet
facet normal 3.050615364618168e-16 -3.050615364618168e-16 1
  outer loop
    vertex 27.74755477905273 32.43267440795898 17.98200035095215
    vertex 26.33342361450195 34.11797332763672 17.98200035095215
    vertex 26.43267631530762 33.74755477905273 17.98200035095215
  endloop
endfacet
facet normal 3.050615364618168e-16 -3.050615364618168e-16 1
  outer loop
    vertex 27.74755477905273 32.43267440795898 17.98200035095215
    vertex 26.43267631530762 33.74755477905273 17.98200035095215
    vertex 26.5947437286377 33.40000152587891 17.98200035095215
  endloop
endfacet
facet normal 3.050615364618168e-16 -3.050615364618168e-16 1
  outer loop
    vertex 27.74755477905273 32.43267440795898 17.98200035095215
    vertex 26.5947437286377 33.40000152587891 17.98200035095215
    vertex 26.8147029876709 33.08586883544922 17.98200035095215
  endloop
endfacet
facet normal 3.050615364618168e-16 -3.050615364618168e-16 1
  outer loop
    vertex 27.74755477905273 32.43267440795898 17.98200035095215
    vertex 26.8147029876709 33.08586883544922 17.98200035095215
    vertex 27.08586692810059 32.81470108032227 17.98200035095215
  endloop
endfacet
facet normal 3.050615364618168e-16 -3.050615364618168e-16 1
  outer loop
    vertex 27.74755477905273 32.43267440795898 17.98200035095215
    vertex 27.08586692810059 32.81470108032227 17.98200035095215
    vertex 27.39999961853027 32.59474563598633 17.98200035095215
  endloop
endfacet
facet normal 0.4226182699203491 -0.9063078165054321 -2.688755149787576e-14
  outer loop
    vertex 27.74755477905273 36.56732559204102 17.98200035095215
    vertex 27.39999961853027 36.40525436401367 18.88199996948242
    vertex 27.39999961853027 36.40525436401367 17.98200035095215
  endloop
endfacet
facet normal 0.4226182699203491 -0.9063078165054321 -2.688755149787576e-14
  outer loop
    vertex 27.39999961853027 36.40525436401367 18.88199996948242
    vertex 27.74755477905273 36.56732559204102 17.98200035095215
    vertex 27.74755477905273 36.56732559204102 18.88199996948242
  endloop
endfacet
facet normal 0.5735764503479004 -0.8191520571708679 -3.996980765569487e-14
  outer loop
    vertex 27.39999961853027 36.40525436401367 17.98200035095215
    vertex 27.08586692810059 36.18529891967773 18.88199996948242
    vertex 27.08586692810059 36.18529891967773 17.98200035095215
  endloop
endfacet
facet normal 0.5735764503479004 -0.8191520571708679 -3.996980765569487e-14
  outer loop
    vertex 27.08586692810059 36.18529891967773 18.88199996948242
    vertex 27.39999961853027 36.40525436401367 17.98200035095215
    vertex 27.39999961853027 36.40525436401367 18.88199996948242
  endloop
endfacet
facet normal 0.7071067690849304 -0.7071067690849304 -4.918254456584732e-14
  outer loop
    vertex 27.08586692810059 36.18529891967773 17.98200035095215
    vertex 26.8147029876709 35.91413116455078 18.88199996948242
    vertex 26.8147029876709 35.91413116455078 17.98200035095215
  endloop
endfacet
facet normal 0.7071067690849304 -0.7071067690849304 -4.918254456584732e-14
  outer loop
    vertex 26.8147029876709 35.91413116455078 18.88199996948242
    vertex 27.08586692810059 36.18529891967773 17.98200035095215
    vertex 27.08586692810059 36.18529891967773 18.88199996948242
  endloop
endfacet
facet normal 0.8191520571708679 -0.5735764503479004 -5.175465158974331e-14
  outer loop
    vertex 26.8147029876709 35.91413116455078 18.88199996948242
    vertex 26.5947437286377 35.59999847412109 17.98200035095215
    vertex 26.8147029876709 35.91413116455078 17.98200035095215
  endloop
endfacet
facet normal 0.8191520571708679 -0.5735764503479004 -5.175465158974331e-14
  outer loop
    vertex 26.5947437286377 35.59999847412109 17.98200035095215
    vertex 26.8147029876709 35.91413116455078 18.88199996948242
    vertex 26.5947437286377 35.59999847412109 18.88199996948242
  endloop
endfacet
facet normal 0.9063078165054321 -0.4226182699203491 -6.28756622505014e-14
  outer loop
    vertex 26.5947437286377 35.59999847412109 18.88199996948242
    vertex 26.43267631530762 35.25244522094727 17.98200035095215
    vertex 26.5947437286377 35.59999847412109 17.98200035095215
  endloop
endfacet
facet normal 0.9063078165054321 -0.4226182699203491 -6.28756622505014e-14
  outer loop
    vertex 26.43267631530762 35.25244522094727 17.98200035095215
    vertex 26.5947437286377 35.59999847412109 18.88199996948242
    vertex 26.43267631530762 35.25244522094727 18.88199996948242
  endloop
endfacet
facet normal 0.9659258127212524 -0.258819043636322 -6.696368042317588e-14
  outer loop
    vertex 26.43267631530762 35.25244522094727 17.98200035095215
    vertex 26.33342361450195 34.88202667236328 18.88199996948242
    vertex 26.33342361450195 34.88202667236328 17.98200035095215
  endloop
endfacet
facet normal 0.9659258127212524 -0.258819043636322 -6.696368042317588e-14
  outer loop
    vertex 26.33342361450195 34.88202667236328 18.88199996948242
    vertex 26.43267631530762 35.25244522094727 17.98200035095215
    vertex 26.43267631530762 35.25244522094727 18.88199996948242
  endloop
endfacet
facet normal 0.9961947202682495 -0.08715574443340302 -6.275816861632186e-14
  outer loop
    vertex 26.33342361450195 34.88202667236328 18.88199996948242
    vertex 26.29999923706055 34.5 17.98200035095215
    vertex 26.33342361450195 34.88202667236328 17.98200035095215
  endloop
endfacet
facet normal 0.9961947202682495 -0.08715574443340302 -6.275816861632186e-14
  outer loop
    vertex 26.29999923706055 34.5 17.98200035095215
    vertex 26.33342361450195 34.88202667236328 18.88199996948242
    vertex 26.29999923706055 34.5 18.88199996948242
  endloop
endfacet
facet normal 0.9961947202682495 0.08715574443340302 -6.270499527602502e-14
  outer loop
    vertex 26.29999923706055 34.5 18.88199996948242
    vertex 26.33342361450195 34.11797332763672 17.98200035095215
    vertex 26.29999923706055 34.5 17.98200035095215
  endloop
endfacet
facet normal 0.9961947202682495 0.08715574443340302 -6.270499527602502e-14
  outer loop
    vertex 26.33342361450195 34.11797332763672 17.98200035095215
    vertex 26.29999923706055 34.5 18.88199996948242
    vertex 26.33342361450195 34.11797332763672 18.88199996948242
  endloop
endfacet
facet normal 0.9659258127212524 0.258819043636322 -6.680576637675337e-14
  outer loop
    vertex 26.33342361450195 34.11797332763672 18.88199996948242
    vertex 26.43267631530762 33.74755477905273 17.98200035095215
    vertex 26.33342361450195 34.11797332763672 17.98200035095215
  endloop
endfacet
facet normal 0.9659258127212524 0.258819043636322 -6.680576637675337e-14
  outer loop
    vertex 26.43267631530762 33.74755477905273 17.98200035095215
    vertex 26.33342361450195 34.11797332763672 18.88199996948242
    vertex 26.43267631530762 33.74755477905273 18.88199996948242
  endloop
endfacet
facet normal 0.9063078165054321 0.4226182699203491 -6.261781864509361e-14
  outer loop
    vertex 26.43267631530762 33.74755477905273 18.88199996948242
    vertex 26.5947437286377 33.40000152587891 17.98200035095215
    vertex 26.43267631530762 33.74755477905273 17.98200035095215
  endloop
endfacet
facet normal 0.9063078165054321 0.4226182699203491 -6.261781864509361e-14
  outer loop
    vertex 26.5947437286377 33.40000152587891 17.98200035095215
    vertex 26.43267631530762 33.74755477905273 18.88199996948242
    vertex 26.5947437286377 33.40000152587891 18.88199996948242
  endloop
endfacet
facet normal 0.8191520571708679 0.5735764503479004 -5.140470162165109e-14
  outer loop
    vertex 26.5947437286377 33.40000152587891 18.88199996948242
    vertex 26.8147029876709 33.08586883544922 17.98200035095215
    vertex 26.5947437286377 33.40000152587891 17.98200035095215
  endloop
endfacet
facet normal 0.8191520571708679 0.5735764503479004 -5.140470162165109e-14
  outer loop
    vertex 26.8147029876709 33.08586883544922 17.98200035095215
    vertex 26.5947437286377 33.40000152587891 18.88199996948242
    vertex 26.8147029876709 33.08586883544922 18.88199996948242
  endloop
endfacet
facet normal 0.7071067690849304 0.7071067690849304 -4.875112358075639e-14
  outer loop
    vertex 26.8147029876709 33.08586883544922 18.88199996948242
    vertex 27.08586692810059 32.81470108032227 17.98200035095215
    vertex 26.8147029876709 33.08586883544922 17.98200035095215
  endloop
endfacet
facet normal 0.7071067690849304 0.7071067690849304 -4.875112358075639e-14
  outer loop
    vertex 27.08586692810059 32.81470108032227 17.98200035095215
    vertex 26.8147029876709 33.08586883544922 18.88199996948242
    vertex 27.08586692810059 32.81470108032227 18.88199996948242
  endloop
endfacet
facet normal 0.5735764503479004 0.8191520571708679 -4.66583253966573e-14
  outer loop
    vertex 27.08586692810059 32.81470108032227 18.88199996948242
    vertex 27.39999961853027 32.59474563598633 17.98200035095215
    vertex 27.08586692810059 32.81470108032227 17.98200035095215
  endloop
endfacet
facet normal 0.5735764503479004 0.8191520571708679 -4.66583253966573e-14
  outer loop
    vertex 27.39999961853027 32.59474563598633 17.98200035095215
    vertex 27.08586692810059 32.81470108032227 18.88199996948242
    vertex 27.39999961853027 32.59474563598633 18.88199996948242
  endloop
endfacet
facet normal 0.4226182699203491 0.9063078165054321 -3.163102239986046e-14
  outer loop
    vertex 27.39999961853027 32.59474563598633 18.88199996948242
    vertex 27.74755477905273 32.43267440795898 17.98200035095215
    vertex 27.39999961853027 32.59474563598633 17.98200035095215
  endloop
endfacet
facet normal 0.4226182699203491 0.9063078165054321 -3.163102239986046e-14
  outer loop
    vertex 27.74755477905273 32.43267440795898 17.98200035095215
    vertex 27.39999961853027 32.59474563598633 18.88199996948242
    vertex 27.74755477905273 32.43267440795898 18.88199996948242
  endloop
endfacet
facet normal 0.258819043636322 0.9659258127212524 -8.348562557144567e-15
  outer loop
    vertex 27.74755477905273 32.43267440795898 18.88199996948242
    vertex 28 32.36503219604492 17.73200035095215
    vertex 27.74755477905273 32.43267440795898 17.98200035095215
  endloop
endfacet
facet normal 0.258819043636322 0.9659258127212524 -8.348562557144567e-15
  outer loop
    vertex 28 32.36503219604492 17.73200035095215
    vertex 27.74755477905273 32.43267440795898 18.88199996948242
    vertex 28 32.36503219604492 18.88199996948242
  endloop
endfacet
facet normal -1.665334536937735e-16 -1 -3.050615364618168e-16
  outer loop
    vertex 29 35 9.982000350952148
    vertex 28 35 15.48200035095215
    vertex 28 35 9.982000350952148
  endloop
endfacet
facet normal -1.665334536937735e-16 -1 -3.050615364618168e-16
  outer loop
    vertex 28 35 15.48200035095215
    vertex 29 35 9.982000350952148
    vertex 29 35 15.48200035095215
  endloop
endfacet
facet normal -4.699943996407671e-15 -1 -3.133296103484233e-16
  outer loop
    vertex 29 32 9.982000350952148
    vertex 29.60000038146973 32 18.98200035095215
    vertex 29 32 18.98200035095215
  endloop
endfacet
facet normal -4.699943996407671e-15 -1 -3.133296103484233e-16
  outer loop
    vertex 29.60000038146973 32 18.98200035095215
    vertex 29 32 9.982000350952148
    vertex 29.60000038146973 32 9.982000350952148
  endloop
endfacet
facet normal -4.699943996407671e-15 1 3.133296103484233e-16
  outer loop
    vertex 28 37 18.98200035095215
    vertex 27.39999961853027 37 9.982000350952148
    vertex 27.39999961853027 37 18.98200035095215
  endloop
endfacet
facet normal -4.699943996407671e-15 1 3.133296103484233e-16
  outer loop
    vertex 27.39999961853027 37 9.982000350952148
    vertex 28 37 18.98200035095215
    vertex 28 37 9.982000350952148
  endloop
endfacet
facet normal 4.699943996407671e-15 -1 -3.133296103484233e-16
  outer loop
    vertex 28 32 9.982000350952148
    vertex 27.39999961853027 32 18.98200035095215
    vertex 27.39999961853027 32 9.982000350952148
  endloop
endfacet
facet normal 4.699943996407671e-15 -1 -3.133296103484233e-16
  outer loop
    vertex 27.39999961853027 32 18.98200035095215
    vertex 28 32 9.982000350952148
    vertex 28 32 18.98200035095215
  endloop
endfacet
facet normal 4.699943996407671e-15 1 3.133296103484233e-16
  outer loop
    vertex 29.60000038146973 37 18.98200035095215
    vertex 29 37 9.982000350952148
    vertex 29 37 18.98200035095215
  endloop
endfacet
facet normal 4.699943996407671e-15 1 3.133296103484233e-16
  outer loop
    vertex 29 37 9.982000350952148
    vertex 29.60000038146973 37 18.98200035095215
    vertex 29.60000038146973 37 9.982000350952148
  endloop
endfacet
facet normal -1 5.447662330596405e-15 8.616564416930538e-16
  outer loop
    vertex 26 33.40000152587891 18.98200035095215
    vertex 26 35.59999847412109 9.982000350952148
    vertex 26 33.40000152587891 9.982000350952148
  endloop
endfacet
facet normal -1 5.447662330596405e-15 8.616564416930538e-16
  outer loop
    vertex 26 35.59999847412109 9.982000350952148
    vertex 26 33.40000152587891 18.98200035095215
    vertex 26 35.59999847412109 18.98200035095215
  endloop
endfacet
facet normal -1.639902604306996e-17 4.519155295848963e-16 -1
  outer loop
    vertex 29.60000038146973 32 9.982000350952148
    vertex 29 33 9.982000350952148
    vertex 31 33.40000152587891 9.982000350952148
  endloop
endfacet
facet normal -1.639902604306996e-17 4.519155295848963e-16 -1
  outer loop
    vertex 29 33 9.982000350952148
    vertex 29.60000038146973 32 9.982000350952148
    vertex 29 32 9.982000350952148
  endloop
endfacet
facet normal -1.639902604306996e-17 4.519155295848963e-16 -1
  outer loop
    vertex 28 36 9.982000350952148
    vertex 27.39999961853027 37 9.982000350952148
    vertex 28 37 9.982000350952148
  endloop
endfacet
facet normal -1.639902604306996e-17 4.519155295848963e-16 -1
  outer loop
    vertex 27.39999961853027 37 9.982000350952148
    vertex 28 36 9.982000350952148
    vertex 26 35.59999847412109 9.982000350952148
  endloop
endfacet
facet normal -1.639902604306996e-17 4.519155295848963e-16 -1
  outer loop
    vertex 26 35.59999847412109 9.982000350952148
    vertex 28 36 9.982000350952148
    vertex 31 35.59999847412109 9.982000350952148
  endloop
endfacet
facet normal -1.639902604306996e-17 4.519155295848963e-16 -1
  outer loop
    vertex 26 35.59999847412109 9.982000350952148
    vertex 31 35.59999847412109 9.982000350952148
    vertex 29 35 9.982000350952148
  endloop
endfacet
facet normal -1.639902604306996e-17 4.519155295848963e-16 -1
  outer loop
    vertex 29 35 9.982000350952148
    vertex 31 35.59999847412109 9.982000350952148
    vertex 31 33.40000152587891 9.982000350952148
  endloop
endfacet
facet normal -1.639902604306996e-17 4.519155295848963e-16 -1
  outer loop
    vertex 29 35 9.982000350952148
    vertex 31 33.40000152587891 9.982000350952148
    vertex 29 34 9.982000350952148
  endloop
endfacet
facet normal -1.639902604306996e-17 4.519155295848963e-16 -1
  outer loop
    vertex 29 34 9.982000350952148
    vertex 31 33.40000152587891 9.982000350952148
    vertex 28 34 9.982000350952148
  endloop
endfacet
facet normal -1.639902604306996e-17 4.519155295848963e-16 -1
  outer loop
    vertex 28 34 9.982000350952148
    vertex 31 33.40000152587891 9.982000350952148
    vertex 26 33.40000152587891 9.982000350952148
  endloop
endfacet
facet normal -1.639902604306996e-17 4.519155295848963e-16 -1
  outer loop
    vertex 26 33.40000152587891 9.982000350952148
    vertex 31 33.40000152587891 9.982000350952148
    vertex 28 33 9.982000350952148
  endloop
endfacet
facet normal -1.639902604306996e-17 4.519155295848963e-16 -1
  outer loop
    vertex 26 33.40000152587891 9.982000350952148
    vertex 28 33 9.982000350952148
    vertex 27.39999961853027 32 9.982000350952148
  endloop
endfacet
facet normal -1.639902604306996e-17 4.519155295848963e-16 -1
  outer loop
    vertex 28 33 9.982000350952148
    vertex 31 33.40000152587891 9.982000350952148
    vertex 29 33 9.982000350952148
  endloop
endfacet
facet normal -1.639902604306996e-17 4.519155295848963e-16 -1
  outer loop
    vertex 27.39999961853027 32 9.982000350952148
    vertex 28 33 9.982000350952148
    vertex 28 32 9.982000350952148
  endloop
endfacet
facet normal -1.639902604306996e-17 4.519155295848963e-16 -1
  outer loop
    vertex 26 35.59999847412109 9.982000350952148
    vertex 28 35 9.982000350952148
    vertex 26 33.40000152587891 9.982000350952148
  endloop
endfacet
facet normal -1.639902604306996e-17 4.519155295848963e-16 -1
  outer loop
    vertex 28 35 9.982000350952148
    vertex 26 35.59999847412109 9.982000350952148
    vertex 29 35 9.982000350952148
  endloop
endfacet
facet normal -1.639902604306996e-17 4.519155295848963e-16 -1
  outer loop
    vertex 26 33.40000152587891 9.982000350952148
    vertex 28 35 9.982000350952148
    vertex 28 34 9.982000350952148
  endloop
endfacet
facet normal -1.639902604306996e-17 4.519155295848963e-16 -1
  outer loop
    vertex 29.60000038146973 37 9.982000350952148
    vertex 29 36 9.982000350952148
    vertex 29 37 9.982000350952148
  endloop
endfacet
facet normal -1.639902604306996e-17 4.519155295848963e-16 -1
  outer loop
    vertex 29 36 9.982000350952148
    vertex 29.60000038146973 37 9.982000350952148
    vertex 31 35.59999847412109 9.982000350952148
  endloop
endfacet
facet normal -1.639902604306996e-17 4.519155295848963e-16 -1
  outer loop
    vertex 29 36 9.982000350952148
    vertex 31 35.59999847412109 9.982000350952148
    vertex 28 36 9.982000350952148
  endloop
endfacet
facet normal -0.7036584615707397 -9.957524113296992e-17 0.7105383276939392
  outer loop
    vertex 29 32.36503219604492 17.73200035095215
    vertex 29.25244522094727 36.56732559204102 17.98200035095215
    vertex 29 36.63496780395508 17.73200035095215
  endloop
endfacet
facet normal -0.7036584615707397 -9.957524113296992e-17 0.7105383276939392
  outer loop
    vertex 29.25244522094727 36.56732559204102 17.98200035095215
    vertex 29 32.36503219604492 17.73200035095215
    vertex 29.25244522094727 32.43267440795898 17.98200035095215
  endloop
endfacet
facet normal 9.79541524208232e-17 -0.7071067690849304 0.7071067690849304
  outer loop
    vertex 28 35 15.48200035095215
    vertex 29 35.5 15.98200035095215
    vertex 28 35.5 15.98200035095215
  endloop
endfacet
facet normal 9.79541524208232e-17 -0.7071067690849304 0.7071067690849304
  outer loop
    vertex 29 35.5 15.98200035095215
    vertex 28 35 15.48200035095215
    vertex 29 35 15.48200035095215
  endloop
endfacet
facet normal 0.7036584615707397 -3.339405954028602e-16 0.7105383276939392
  outer loop
    vertex 27.74755477905273 36.56732559204102 17.98200035095215
    vertex 28 32.36503219604492 17.73200035095215
    vertex 28 36.63496780395508 17.73200035095215
  endloop
endfacet
facet normal 0.7036584615707397 -3.339405954028602e-16 0.7105383276939392
  outer loop
    vertex 28 32.36503219604492 17.73200035095215
    vertex 27.74755477905273 36.56732559204102 17.98200035095215
    vertex 27.74755477905273 32.43267440795898 17.98200035095215
  endloop
endfacet
facet normal 0.1833612471818924 0.6843134760856628 0.7057575583457947
  outer loop
    vertex 27.71335411071777 32.33870697021484 18.98200035095215
    vertex 28 32.36503219604492 18.88199996948242
    vertex 27.74755477905273 32.43267440795898 18.88199996948242
  endloop
endfacet
facet normal 0.1833612471818924 0.6843134760856628 0.7057575583457947
  outer loop
    vertex 28 32.36503219604492 18.88199996948242
    vertex 27.71335411071777 32.33870697021484 18.98200035095215
    vertex 28 32.26190185546875 18.98200035095215
  endloop
endfacet
facet normal 0.4063521921634674 -0.5803310871124268 0.7057575583457947
  outer loop
    vertex 27.0215892791748 36.26190185546875 18.98200035095215
    vertex 27.39999961853027 36.40525436401367 18.88199996948242
    vertex 27.35000038146973 36.49185943603516 18.98200035095215
  endloop
endfacet
facet normal 0.4063521921634674 -0.5803310871124268 0.7057575583457947
  outer loop
    vertex 27.39999961853027 36.40525436401367 18.88199996948242
    vertex 27.0215892791748 36.26190185546875 18.98200035095215
    vertex 27.08586692810059 36.18529891967773 18.88199996948242
  endloop
endfacet
facet normal 0.2994053661823273 -0.642076849937439 0.7057575583457947
  outer loop
    vertex 27.35000038146973 36.49185943603516 18.98200035095215
    vertex 27.74755477905273 36.56732559204102 18.88199996948242
    vertex 27.71335411071777 36.66129302978516 18.98200035095215
  endloop
endfacet
facet normal 0.2994053661823273 -0.642076849937439 0.7057575583457947
  outer loop
    vertex 27.74755477905273 36.56732559204102 18.88199996948242
    vertex 27.35000038146973 36.49185943603516 18.98200035095215
    vertex 27.39999961853027 36.40525436401367 18.88199996948242
  endloop
endfacet
facet normal 0.1833612471818924 -0.6843134760856628 0.7057575583457947
  outer loop
    vertex 27.71335411071777 36.66129302978516 18.98200035095215
    vertex 28 36.63496780395508 18.88199996948242
    vertex 28 36.73809814453125 18.98200035095215
  endloop
endfacet
facet normal 0.1833612471818924 -0.6843134760856628 0.7057575583457947
  outer loop
    vertex 28 36.63496780395508 18.88199996948242
    vertex 27.71335411071777 36.66129302978516 18.98200035095215
    vertex 27.74755477905273 36.56732559204102 18.88199996948242
  endloop
endfacet
facet normal 0.5009522438049316 -0.5009522438049316 0.7057575583457947
  outer loop
    vertex 26.73809814453125 35.97841262817383 18.98200035095215
    vertex 27.08586692810059 36.18529891967773 18.88199996948242
    vertex 27.0215892791748 36.26190185546875 18.98200035095215
  endloop
endfacet
facet normal 0.5009522438049316 -0.5009522438049316 0.7057575583457947
  outer loop
    vertex 27.08586692810059 36.18529891967773 18.88199996948242
    vertex 26.73809814453125 35.97841262817383 18.98200035095215
    vertex 26.8147029876709 35.91413116455078 18.88199996948242
  endloop
endfacet
facet normal 0.5803310871124268 -0.4063521921634674 0.7057575583457947
  outer loop
    vertex 26.50814247131348 35.65000152587891 18.98200035095215
    vertex 26.8147029876709 35.91413116455078 18.88199996948242
    vertex 26.73809814453125 35.97841262817383 18.98200035095215
  endloop
endfacet
facet normal 0.5803310871124268 -0.4063521921634674 0.7057575583457947
  outer loop
    vertex 26.8147029876709 35.91413116455078 18.88199996948242
    vertex 26.50814247131348 35.65000152587891 18.98200035095215
    vertex 26.5947437286377 35.59999847412109 18.88199996948242
  endloop
endfacet
facet normal 0.642076849937439 -0.2994053661823273 0.7057575583457947
  outer loop
    vertex 26.33870697021484 35.28664779663086 18.98200035095215
    vertex 26.5947437286377 35.59999847412109 18.88199996948242
    vertex 26.50814247131348 35.65000152587891 18.98200035095215
  endloop
endfacet
facet normal 0.642076849937439 -0.2994053661823273 0.7057575583457947
  outer loop
    vertex 26.5947437286377 35.59999847412109 18.88199996948242
    vertex 26.33870697021484 35.28664779663086 18.98200035095215
    vertex 26.43267631530762 35.25244522094727 18.88199996948242
  endloop
endfacet
facet normal 0.6843134760856628 -0.1833612471818924 0.7057575583457947
  outer loop
    vertex 26.23494148254395 34.89939117431641 18.98200035095215
    vertex 26.43267631530762 35.25244522094727 18.88199996948242
    vertex 26.33870697021484 35.28664779663086 18.98200035095215
  endloop
endfacet
facet normal 0.6843134760856628 -0.1833612471818924 0.7057575583457947
  outer loop
    vertex 26.43267631530762 35.25244522094727 18.88199996948242
    vertex 26.23494148254395 34.89939117431641 18.98200035095215
    vertex 26.33342361450195 34.88202667236328 18.88199996948242
  endloop
endfacet
facet normal 0.7057575583457947 -0.061745785176754 0.7057575583457947
  outer loop
    vertex 26.23494148254395 34.89939117431641 18.98200035095215
    vertex 26.29999923706055 34.5 18.88199996948242
    vertex 26.33342361450195 34.88202667236328 18.88199996948242
  endloop
endfacet
facet normal 0.7057575583457947 -0.061745785176754 0.7057575583457947
  outer loop
    vertex 26.29999923706055 34.5 18.88199996948242
    vertex 26.23494148254395 34.89939117431641 18.98200035095215
    vertex 26.20000076293945 34.5 18.98200035095215
  endloop
endfacet
facet normal 0.7057575583457947 0.061745785176754 0.7057575583457947
  outer loop
    vertex 26.20000076293945 34.5 18.98200035095215
    vertex 26.33342361450195 34.11797332763672 18.88199996948242
    vertex 26.29999923706055 34.5 18.88199996948242
  endloop
endfacet
facet normal 0.7057575583457947 0.061745785176754 0.7057575583457947
  outer loop
    vertex 26.33342361450195 34.11797332763672 18.88199996948242
    vertex 26.20000076293945 34.5 18.98200035095215
    vertex 26.23494148254395 34.10060882568359 18.98200035095215
  endloop
endfacet
facet normal 0.6843134760856628 0.1833612471818924 0.7057575583457947
  outer loop
    vertex 26.23494148254395 34.10060882568359 18.98200035095215
    vertex 26.43267631530762 33.74755477905273 18.88199996948242
    vertex 26.33342361450195 34.11797332763672 18.88199996948242
  endloop
endfacet
facet normal 0.6843134760856628 0.1833612471818924 0.7057575583457947
  outer loop
    vertex 26.43267631530762 33.74755477905273 18.88199996948242
    vertex 26.23494148254395 34.10060882568359 18.98200035095215
    vertex 26.33870697021484 33.71335220336914 18.98200035095215
  endloop
endfacet
facet normal 0.642076849937439 0.2994053661823273 0.7057575583457947
  outer loop
    vertex 26.33870697021484 33.71335220336914 18.98200035095215
    vertex 26.5947437286377 33.40000152587891 18.88199996948242
    vertex 26.43267631530762 33.74755477905273 18.88199996948242
  endloop
endfacet
facet normal 0.642076849937439 0.2994053661823273 0.7057575583457947
  outer loop
    vertex 26.5947437286377 33.40000152587891 18.88199996948242
    vertex 26.33870697021484 33.71335220336914 18.98200035095215
    vertex 26.50814247131348 33.34999847412109 18.98200035095215
  endloop
endfacet
facet normal 0.5803310871124268 0.4063521921634674 0.7057575583457947
  outer loop
    vertex 26.50814247131348 33.34999847412109 18.98200035095215
    vertex 26.8147029876709 33.08586883544922 18.88199996948242
    vertex 26.5947437286377 33.40000152587891 18.88199996948242
  endloop
endfacet
facet normal 0.5803310871124268 0.4063521921634674 0.7057575583457947
  outer loop
    vertex 26.8147029876709 33.08586883544922 18.88199996948242
    vertex 26.50814247131348 33.34999847412109 18.98200035095215
    vertex 26.73809814453125 33.02158737182617 18.98200035095215
  endloop
endfacet
facet normal 0.5009522438049316 0.5009522438049316 0.7057575583457947
  outer loop
    vertex 26.73809814453125 33.02158737182617 18.98200035095215
    vertex 27.08586692810059 32.81470108032227 18.88199996948242
    vertex 26.8147029876709 33.08586883544922 18.88199996948242
  endloop
endfacet
facet normal 0.5009522438049316 0.5009522438049316 0.7057575583457947
  outer loop
    vertex 27.08586692810059 32.81470108032227 18.88199996948242
    vertex 26.73809814453125 33.02158737182617 18.98200035095215
    vertex 27.0215892791748 32.73809814453125 18.98200035095215
  endloop
endfacet
facet normal 0.4063521921634674 0.5803310871124268 0.7057575583457947
  outer loop
    vertex 27.0215892791748 32.73809814453125 18.98200035095215
    vertex 27.39999961853027 32.59474563598633 18.88199996948242
    vertex 27.08586692810059 32.81470108032227 18.88199996948242
  endloop
endfacet
facet normal 0.4063521921634674 0.5803310871124268 0.7057575583457947
  outer loop
    vertex 27.39999961853027 32.59474563598633 18.88199996948242
    vertex 27.0215892791748 32.73809814453125 18.98200035095215
    vertex 27.35000038146973 32.50814056396484 18.98200035095215
  endloop
endfacet
facet normal 0.2994053661823273 0.642076849937439 0.7057575583457947
  outer loop
    vertex 27.35000038146973 32.50814056396484 18.98200035095215
    vertex 27.74755477905273 32.43267440795898 18.88199996948242
    vertex 27.39999961853027 32.59474563598633 18.88199996948242
  endloop
endfacet
facet normal 0.2994053661823273 0.642076849937439 0.7057575583457947
  outer loop
    vertex 27.74755477905273 32.43267440795898 18.88199996948242
    vertex 27.35000038146973 32.50814056396484 18.98200035095215
    vertex 27.71335411071777 32.33870697021484 18.98200035095215
  endloop
endfacet
facet normal -0.1833612471818924 0.6843134760856628 0.7057575583457947
  outer loop
    vertex 29 32.36503219604492 18.88199996948242
    vertex 29.28664588928223 32.33870697021484 18.98200035095215
    vertex 29.25244522094727 32.43267440795898 18.88199996948242
  endloop
endfacet
facet normal -0.1833612471818924 0.6843134760856628 0.7057575583457947
  outer loop
    vertex 29.28664588928223 32.33870697021484 18.98200035095215
    vertex 29 32.36503219604492 18.88199996948242
    vertex 29 32.26190185546875 18.98200035095215
  endloop
endfacet
facet normal -0.2994053661823273 0.642076849937439 0.7057575583457947
  outer loop
    vertex 29.25244522094727 32.43267440795898 18.88199996948242
    vertex 29.64999961853027 32.50814056396484 18.98200035095215
    vertex 29.60000038146973 32.59474563598633 18.88199996948242
  endloop
endfacet
facet normal -0.2994053661823273 0.642076849937439 0.7057575583457947
  outer loop
    vertex 29.64999961853027 32.50814056396484 18.98200035095215
    vertex 29.25244522094727 32.43267440795898 18.88199996948242
    vertex 29.28664588928223 32.33870697021484 18.98200035095215
  endloop
endfacet
facet normal -0.4063521921634674 0.5803310871124268 0.7057575583457947
  outer loop
    vertex 29.60000038146973 32.59474563598633 18.88199996948242
    vertex 29.9784107208252 32.73809814453125 18.98200035095215
    vertex 29.91413307189941 32.81470108032227 18.88199996948242
  endloop
endfacet
facet normal -0.4063521921634674 0.5803310871124268 0.7057575583457947
  outer loop
    vertex 29.9784107208252 32.73809814453125 18.98200035095215
    vertex 29.60000038146973 32.59474563598633 18.88199996948242
    vertex 29.64999961853027 32.50814056396484 18.98200035095215
  endloop
endfacet
facet normal -0.5009522438049316 0.5009522438049316 0.7057575583457947
  outer loop
    vertex 29.91413307189941 32.81470108032227 18.88199996948242
    vertex 30.26190185546875 33.02158737182617 18.98200035095215
    vertex 30.1852970123291 33.08586883544922 18.88199996948242
  endloop
endfacet
facet normal -0.5009522438049316 0.5009522438049316 0.7057575583457947
  outer loop
    vertex 30.26190185546875 33.02158737182617 18.98200035095215
    vertex 29.91413307189941 32.81470108032227 18.88199996948242
    vertex 29.9784107208252 32.73809814453125 18.98200035095215
  endloop
endfacet
facet normal -0.5803310871124268 0.4063521921634674 0.7057575583457947
  outer loop
    vertex 30.1852970123291 33.08586883544922 18.88199996948242
    vertex 30.49185752868652 33.34999847412109 18.98200035095215
    vertex 30.4052562713623 33.40000152587891 18.88199996948242
  endloop
endfacet
facet normal -0.5803310871124268 0.4063521921634674 0.7057575583457947
  outer loop
    vertex 30.49185752868652 33.34999847412109 18.98200035095215
    vertex 30.1852970123291 33.08586883544922 18.88199996948242
    vertex 30.26190185546875 33.02158737182617 18.98200035095215
  endloop
endfacet
facet normal -0.642076849937439 0.2994053661823273 0.7057575583457947
  outer loop
    vertex 30.4052562713623 33.40000152587891 18.88199996948242
    vertex 30.66129302978516 33.71335220336914 18.98200035095215
    vertex 30.56732368469238 33.74755477905273 18.88199996948242
  endloop
endfacet
facet normal -0.642076849937439 0.2994053661823273 0.7057575583457947
  outer loop
    vertex 30.66129302978516 33.71335220336914 18.98200035095215
    vertex 30.4052562713623 33.40000152587891 18.88199996948242
    vertex 30.49185752868652 33.34999847412109 18.98200035095215
  endloop
endfacet
facet normal -0.6843134760856628 0.1833612471818924 0.7057575583457947
  outer loop
    vertex 30.56732368469238 33.74755477905273 18.88199996948242
    vertex 30.76505851745605 34.10060882568359 18.98200035095215
    vertex 30.66657638549805 34.11797332763672 18.88199996948242
  endloop
endfacet
facet normal -0.6843134760856628 0.1833612471818924 0.7057575583457947
  outer loop
    vertex 30.76505851745605 34.10060882568359 18.98200035095215
    vertex 30.56732368469238 33.74755477905273 18.88199996948242
    vertex 30.66129302978516 33.71335220336914 18.98200035095215
  endloop
endfacet
facet normal -0.7057575583457947 0.061745785176754 0.7057575583457947
  outer loop
    vertex 30.66657638549805 34.11797332763672 18.88199996948242
    vertex 30.79999923706055 34.5 18.98200035095215
    vertex 30.70000076293945 34.5 18.88199996948242
  endloop
endfacet
facet normal -0.7057575583457947 0.061745785176754 0.7057575583457947
  outer loop
    vertex 30.79999923706055 34.5 18.98200035095215
    vertex 30.66657638549805 34.11797332763672 18.88199996948242
    vertex 30.76505851745605 34.10060882568359 18.98200035095215
  endloop
endfacet
facet normal -0.7057575583457947 -0.061745785176754 0.7057575583457947
  outer loop
    vertex 30.79999923706055 34.5 18.98200035095215
    vertex 30.66657638549805 34.88202667236328 18.88199996948242
    vertex 30.70000076293945 34.5 18.88199996948242
  endloop
endfacet
facet normal -0.7057575583457947 -0.061745785176754 0.7057575583457947
  outer loop
    vertex 30.66657638549805 34.88202667236328 18.88199996948242
    vertex 30.79999923706055 34.5 18.98200035095215
    vertex 30.76505851745605 34.89939117431641 18.98200035095215
  endloop
endfacet
facet normal -0.6843134760856628 -0.1833612471818924 0.7057575583457947
  outer loop
    vertex 30.56732368469238 35.25244522094727 18.88199996948242
    vertex 30.76505851745605 34.89939117431641 18.98200035095215
    vertex 30.66129302978516 35.28664779663086 18.98200035095215
  endloop
endfacet
facet normal -0.6843134760856628 -0.1833612471818924 0.7057575583457947
  outer loop
    vertex 30.76505851745605 34.89939117431641 18.98200035095215
    vertex 30.56732368469238 35.25244522094727 18.88199996948242
    vertex 30.66657638549805 34.88202667236328 18.88199996948242
  endloop
endfacet
facet normal -0.642076849937439 -0.2994053661823273 0.7057575583457947
  outer loop
    vertex 30.4052562713623 35.59999847412109 18.88199996948242
    vertex 30.66129302978516 35.28664779663086 18.98200035095215
    vertex 30.49185752868652 35.65000152587891 18.98200035095215
  endloop
endfacet
facet normal -0.642076849937439 -0.2994053661823273 0.7057575583457947
  outer loop
    vertex 30.66129302978516 35.28664779663086 18.98200035095215
    vertex 30.4052562713623 35.59999847412109 18.88199996948242
    vertex 30.56732368469238 35.25244522094727 18.88199996948242
  endloop
endfacet
facet normal -0.5803310871124268 -0.4063521921634674 0.7057575583457947
  outer loop
    vertex 30.1852970123291 35.91413116455078 18.88199996948242
    vertex 30.49185752868652 35.65000152587891 18.98200035095215
    vertex 30.26190185546875 35.97841262817383 18.98200035095215
  endloop
endfacet
facet normal -0.5803310871124268 -0.4063521921634674 0.7057575583457947
  outer loop
    vertex 30.49185752868652 35.65000152587891 18.98200035095215
    vertex 30.1852970123291 35.91413116455078 18.88199996948242
    vertex 30.4052562713623 35.59999847412109 18.88199996948242
  endloop
endfacet
facet normal -0.5009522438049316 -0.5009522438049316 0.7057575583457947
  outer loop
    vertex 29.91413307189941 36.18529891967773 18.88199996948242
    vertex 30.26190185546875 35.97841262817383 18.98200035095215
    vertex 29.9784107208252 36.26190185546875 18.98200035095215
  endloop
endfacet
facet normal -0.5009522438049316 -0.5009522438049316 0.7057575583457947
  outer loop
    vertex 30.26190185546875 35.97841262817383 18.98200035095215
    vertex 29.91413307189941 36.18529891967773 18.88199996948242
    vertex 30.1852970123291 35.91413116455078 18.88199996948242
  endloop
endfacet
facet normal -0.4063521921634674 -0.5803310871124268 0.7057575583457947
  outer loop
    vertex 29.60000038146973 36.40525436401367 18.88199996948242
    vertex 29.9784107208252 36.26190185546875 18.98200035095215
    vertex 29.64999961853027 36.49185943603516 18.98200035095215
  endloop
endfacet
facet normal -0.4063521921634674 -0.5803310871124268 0.7057575583457947
  outer loop
    vertex 29.9784107208252 36.26190185546875 18.98200035095215
    vertex 29.60000038146973 36.40525436401367 18.88199996948242
    vertex 29.91413307189941 36.18529891967773 18.88199996948242
  endloop
endfacet
facet normal -0.2994053661823273 -0.642076849937439 0.7057575583457947
  outer loop
    vertex 29.25244522094727 36.56732559204102 18.88199996948242
    vertex 29.64999961853027 36.49185943603516 18.98200035095215
    vertex 29.28664588928223 36.66129302978516 18.98200035095215
  endloop
endfacet
facet normal -0.2994053661823273 -0.642076849937439 0.7057575583457947
  outer loop
    vertex 29.64999961853027 36.49185943603516 18.98200035095215
    vertex 29.25244522094727 36.56732559204102 18.88199996948242
    vertex 29.60000038146973 36.40525436401367 18.88199996948242
  endloop
endfacet
facet normal -0.1833612471818924 -0.6843134760856628 0.7057575583457947
  outer loop
    vertex 29 36.63496780395508 18.88199996948242
    vertex 29.28664588928223 36.66129302978516 18.98200035095215
    vertex 29 36.73809814453125 18.98200035095215
  endloop
endfacet
facet normal -0.1833612471818924 -0.6843134760856628 0.7057575583457947
  outer loop
    vertex 29.28664588928223 36.66129302978516 18.98200035095215
    vertex 29 36.63496780395508 18.88199996948242
    vertex 29.25244522094727 36.56732559204102 18.88199996948242
  endloop
endfacet
facet normal 9.79541524208232e-17 -0.7071067690849304 0.7071067690849304
  outer loop
    vertex 29 33 15.48200035095215
    vertex 28 33.5 15.98200035095215
    vertex 28 33 15.48200035095215
  endloop
endfacet
facet normal 9.79541524208232e-17 -0.7071067690849304 0.7071067690849304
  outer loop
    vertex 28 33.5 15.98200035095215
    vertex 29 33 15.48200035095215
    vertex 29 33.5 15.98200035095215
  endloop
endfacet
facet normal 3.334680304276311e-16 0.7071067690849304 0.7071067690849304
  outer loop
    vertex 28 35.5 15.98200035095215
    vertex 29 36 15.48200035095215
    vertex 28 36 15.48200035095215
  endloop
endfacet
facet normal 3.334680304276311e-16 0.7071067690849304 0.7071067690849304
  outer loop
    vertex 29 36 15.48200035095215
    vertex 28 35.5 15.98200035095215
    vertex 29 35.5 15.98200035095215
  endloop
endfacet
facet normal 3.334680304276311e-16 0.7071067690849304 0.7071067690849304
  outer loop
    vertex 29 33.5 15.98200035095215
    vertex 28 34 15.48200035095215
    vertex 28 33.5 15.98200035095215
  endloop
endfacet
facet normal 3.334680304276311e-16 0.7071067690849304 0.7071067690849304
  outer loop
    vertex 28 34 15.48200035095215
    vertex 29 33.5 15.98200035095215
    vertex 29 34 15.48200035095215
  endloop
endfacet
facet normal 3.050615364618168e-16 -3.050615364618168e-16 1
  outer loop
    vertex 29.25244522094727 32.43267440795898 17.98200035095215
    vertex 29.60000038146973 36.40525436401367 17.98200035095215
    vertex 29.25244522094727 36.56732559204102 17.98200035095215
  endloop
endfacet
facet normal 3.050615364618168e-16 -3.050615364618168e-16 1
  outer loop
    vertex 29.60000038146973 36.40525436401367 17.98200035095215
    vertex 29.25244522094727 32.43267440795898 17.98200035095215
    vertex 29.91413307189941 36.18529891967773 17.98200035095215
  endloop
endfacet
facet normal 3.050615364618168e-16 -3.050615364618168e-16 1
  outer loop
    vertex 29.91413307189941 36.18529891967773 17.98200035095215
    vertex 29.25244522094727 32.43267440795898 17.98200035095215
    vertex 30.1852970123291 35.91413116455078 17.98200035095215
  endloop
endfacet
facet normal 3.050615364618168e-16 -3.050615364618168e-16 1
  outer loop
    vertex 30.1852970123291 35.91413116455078 17.98200035095215
    vertex 29.25244522094727 32.43267440795898 17.98200035095215
    vertex 30.4052562713623 35.59999847412109 17.98200035095215
  endloop
endfacet
facet normal 3.050615364618168e-16 -3.050615364618168e-16 1
  outer loop
    vertex 30.4052562713623 35.59999847412109 17.98200035095215
    vertex 29.25244522094727 32.43267440795898 17.98200035095215
    vertex 30.56732368469238 35.25244522094727 17.98200035095215
  endloop
endfacet
facet normal 3.050615364618168e-16 -3.050615364618168e-16 1
  outer loop
    vertex 30.56732368469238 35.25244522094727 17.98200035095215
    vertex 29.25244522094727 32.43267440795898 17.98200035095215
    vertex 30.66657638549805 34.88202667236328 17.98200035095215
  endloop
endfacet
facet normal 3.050615364618168e-16 -3.050615364618168e-16 1
  outer loop
    vertex 30.66657638549805 34.88202667236328 17.98200035095215
    vertex 29.25244522094727 32.43267440795898 17.98200035095215
    vertex 30.70000076293945 34.5 17.98200035095215
  endloop
endfacet
facet normal 3.050615364618168e-16 -3.050615364618168e-16 1
  outer loop
    vertex 30.70000076293945 34.5 17.98200035095215
    vertex 29.25244522094727 32.43267440795898 17.98200035095215
    vertex 30.66657638549805 34.11797332763672 17.98200035095215
  endloop
endfacet
facet normal 3.050615364618168e-16 -3.050615364618168e-16 1
  outer loop
    vertex 30.66657638549805 34.11797332763672 17.98200035095215
    vertex 29.25244522094727 32.43267440795898 17.98200035095215
    vertex 30.56732368469238 33.74755477905273 17.98200035095215
  endloop
endfacet
facet normal 3.050615364618168e-16 -3.050615364618168e-16 1
  outer loop
    vertex 30.56732368469238 33.74755477905273 17.98200035095215
    vertex 29.25244522094727 32.43267440795898 17.98200035095215
    vertex 30.4052562713623 33.40000152587891 17.98200035095215
  endloop
endfacet
facet normal 3.050615364618168e-16 -3.050615364618168e-16 1
  outer loop
    vertex 30.4052562713623 33.40000152587891 17.98200035095215
    vertex 29.25244522094727 32.43267440795898 17.98200035095215
    vertex 30.1852970123291 33.08586883544922 17.98200035095215
  endloop
endfacet
facet normal 3.050615364618168e-16 -3.050615364618168e-16 1
  outer loop
    vertex 30.1852970123291 33.08586883544922 17.98200035095215
    vertex 29.25244522094727 32.43267440795898 17.98200035095215
    vertex 29.91413307189941 32.81470108032227 17.98200035095215
  endloop
endfacet
facet normal 3.050615364618168e-16 -3.050615364618168e-16 1
  outer loop
    vertex 29.91413307189941 32.81470108032227 17.98200035095215
    vertex 29.25244522094727 32.43267440795898 17.98200035095215
    vertex 29.60000038146973 32.59474563598633 17.98200035095215
  endloop
endfacet
facet normal 1 -1.665334536937735e-16 -9.172225018351174e-15
  outer loop
    vertex 28 37 9.982000350952148
    vertex 28 36 15.48200035095215
    vertex 28 36 9.982000350952148
  endloop
endfacet
facet normal 1 -1.665334536937735e-16 -9.172225018351174e-15
  outer loop
    vertex 28 36 15.48200035095215
    vertex 28 37 9.982000350952148
    vertex 28 37 18.98200035095215
  endloop
endfacet
facet normal 1 -1.665334536937735e-16 -9.172225018351174e-15
  outer loop
    vertex 28 36 15.48200035095215
    vertex 28 37 18.98200035095215
    vertex 28 36.63496780395508 17.73200035095215
  endloop
endfacet
facet normal 1 -1.665334536937735e-16 -9.172225018351174e-15
  outer loop
    vertex 28 36 15.48200035095215
    vertex 28 36.63496780395508 17.73200035095215
    vertex 28 35.5 15.98200035095215
  endloop
endfacet
facet normal 1 -1.665334536937735e-16 -9.172225018351174e-15
  outer loop
    vertex 28 35.5 15.98200035095215
    vertex 28 36.63496780395508 17.73200035095215
    vertex 28 33.5 15.98200035095215
  endloop
endfacet
facet normal 1 -1.665334536937735e-16 -9.172225018351174e-15
  outer loop
    vertex 28 36.63496780395508 17.73200035095215
    vertex 28 37 18.98200035095215
    vertex 28 36.63496780395508 18.88199996948242
  endloop
endfacet
facet normal 1 -1.665334536937735e-16 -9.172225018351174e-15
  outer loop
    vertex 28 36.63496780395508 18.88199996948242
    vertex 28 37 18.98200035095215
    vertex 28 36.73809814453125 18.98200035095215
  endloop
endfacet
facet normal 1 -1.665334536937735e-16 -9.172225018351174e-15
  outer loop
    vertex 28 33 15.48200035095215
    vertex 28 32 9.982000350952148
    vertex 28 33 9.982000350952148
  endloop
endfacet
facet normal 1 -1.665334536937735e-16 -9.172225018351174e-15
  outer loop
    vertex 28 32 9.982000350952148
    vertex 28 33 15.48200035095215
    vertex 28 32 18.98200035095215
  endloop
endfacet
facet normal 1 -1.665334536937735e-16 -9.172225018351174e-15
  outer loop
    vertex 28 32 18.98200035095215
    vertex 28 33 15.48200035095215
    vertex 28 32.36503219604492 17.73200035095215
  endloop
endfacet
facet normal 1 -1.665334536937735e-16 -9.172225018351174e-15
  outer loop
    vertex 28 32.36503219604492 17.73200035095215
    vertex 28 33 15.48200035095215
    vertex 28 33.5 15.98200035095215
  endloop
endfacet
facet normal 1 -1.665334536937735e-16 -9.172225018351174e-15
  outer loop
    vertex 28 32.36503219604492 17.73200035095215
    vertex 28 33.5 15.98200035095215
    vertex 28 36.63496780395508 17.73200035095215
  endloop
endfacet
facet normal 1 -1.665334536937735e-16 -9.172225018351174e-15
  outer loop
    vertex 28 32 18.98200035095215
    vertex 28 32.36503219604492 17.73200035095215
    vertex 28 32.36503219604492 18.88199996948242
  endloop
endfacet
facet normal 1 -1.665334536937735e-16 -9.172225018351174e-15
  outer loop
    vertex 28 32 18.98200035095215
    vertex 28 32.36503219604492 18.88199996948242
    vertex 28 32.26190185546875 18.98200035095215
  endloop
endfacet
facet normal 1 -1.665334536937735e-16 -9.172225018351174e-15
  outer loop
    vertex 28 35 15.48200035095215
    vertex 28 34 9.982000350952148
    vertex 28 35 9.982000350952148
  endloop
endfacet
facet normal 1 -1.665334536937735e-16 -9.172225018351174e-15
  outer loop
    vertex 28 34 9.982000350952148
    vertex 28 35 15.48200035095215
    vertex 28 34 15.48200035095215
  endloop
endfacet
facet normal 1 -1.665334536937735e-16 -9.172225018351174e-15
  outer loop
    vertex 28 34 15.48200035095215
    vertex 28 35 15.48200035095215
    vertex 28 35.5 15.98200035095215
  endloop
endfacet
facet normal 1 -1.665334536937735e-16 -9.172225018351174e-15
  outer loop
    vertex 28 34 15.48200035095215
    vertex 28 35.5 15.98200035095215
    vertex 28 33.5 15.98200035095215
  endloop
endfacet
facet normal 1.665334536937735e-16 1 3.050615364618168e-16
  outer loop
    vertex 28 34 15.48200035095215
    vertex 29 34 9.982000350952148
    vertex 28 34 9.982000350952148
  endloop
endfacet
facet normal 1.665334536937735e-16 1 3.050615364618168e-16
  outer loop
    vertex 29 34 9.982000350952148
    vertex 28 34 15.48200035095215
    vertex 29 34 15.48200035095215
  endloop
endfacet
facet normal -1.665334536937735e-16 -1 -3.050615364618168e-16
  outer loop
    vertex 29 33 9.982000350952148
    vertex 28 33 15.48200035095215
    vertex 28 33 9.982000350952148
  endloop
endfacet
facet normal -1.665334536937735e-16 -1 -3.050615364618168e-16
  outer loop
    vertex 28 33 15.48200035095215
    vertex 29 33 9.982000350952148
    vertex 29 33 15.48200035095215
  endloop
endfacet
facet normal 1.665334536937735e-16 1 3.050615364618168e-16
  outer loop
    vertex 28 36 15.48200035095215
    vertex 29 36 9.982000350952148
    vertex 28 36 9.982000350952148
  endloop
endfacet
facet normal 1.665334536937735e-16 1 3.050615364618168e-16
  outer loop
    vertex 29 36 9.982000350952148
    vertex 28 36 15.48200035095215
    vertex 29 36 15.48200035095215
  endloop
endfacet
facet normal -1 1.665334536937735e-16 8.855355922013971e-15
  outer loop
    vertex 29 32 18.98200035095215
    vertex 29 33 9.982000350952148
    vertex 29 32 9.982000350952148
  endloop
endfacet
facet normal -1 1.665334536937735e-16 8.855355922013971e-15
  outer loop
    vertex 29 33 9.982000350952148
    vertex 29 32 18.98200035095215
    vertex 29 33 15.48200035095215
  endloop
endfacet
facet normal -1 1.665334536937735e-16 8.855355922013971e-15
  outer loop
    vertex 29 33 15.48200035095215
    vertex 29 32 18.98200035095215
    vertex 29 32.36503219604492 17.73200035095215
  endloop
endfacet
facet normal -1 1.665334536937735e-16 8.855355922013971e-15
  outer loop
    vertex 29 33 15.48200035095215
    vertex 29 32.36503219604492 17.73200035095215
    vertex 29 33.5 15.98200035095215
  endloop
endfacet
facet normal -1 1.665334536937735e-16 8.855355922013971e-15
  outer loop
    vertex 29 33.5 15.98200035095215
    vertex 29 32.36503219604492 17.73200035095215
    vertex 29 35.5 15.98200035095215
  endloop
endfacet
facet normal -1 1.665334536937735e-16 8.855355922013971e-15
  outer loop
    vertex 29 32.36503219604492 17.73200035095215
    vertex 29 32 18.98200035095215
    vertex 29 32.36503219604492 18.88199996948242
  endloop
endfacet
facet normal -1 1.665334536937735e-16 8.855355922013971e-15
  outer loop
    vertex 29 32.36503219604492 18.88199996948242
    vertex 29 32 18.98200035095215
    vertex 29 32.26190185546875 18.98200035095215
  endloop
endfacet
facet normal -1 1.665334536937735e-16 8.855355922013971e-15
  outer loop
    vertex 29 36 9.982000350952148
    vertex 29 37 18.98200035095215
    vertex 29 37 9.982000350952148
  endloop
endfacet
facet normal -1 1.665334536937735e-16 8.855355922013971e-15
  outer loop
    vertex 29 37 18.98200035095215
    vertex 29 36 9.982000350952148
    vertex 29 36 15.48200035095215
  endloop
endfacet
facet normal -1 1.665334536937735e-16 8.855355922013971e-15
  outer loop
    vertex 29 37 18.98200035095215
    vertex 29 36 15.48200035095215
    vertex 29 36.63496780395508 17.73200035095215
  endloop
endfacet
facet normal -1 1.665334536937735e-16 8.855355922013971e-15
  outer loop
    vertex 29 36.63496780395508 17.73200035095215
    vertex 29 36 15.48200035095215
    vertex 29 35.5 15.98200035095215
  endloop
endfacet
facet normal -1 1.665334536937735e-16 8.855355922013971e-15
  outer loop
    vertex 29 36.63496780395508 17.73200035095215
    vertex 29 35.5 15.98200035095215
    vertex 29 32.36503219604492 17.73200035095215
  endloop
endfacet
facet normal -1 1.665334536937735e-16 8.855355922013971e-15
  outer loop
    vertex 29 37 18.98200035095215
    vertex 29 36.63496780395508 17.73200035095215
    vertex 29 36.63496780395508 18.88199996948242
  endloop
endfacet
facet normal -1 1.665334536937735e-16 8.855355922013971e-15
  outer loop
    vertex 29 37 18.98200035095215
    vertex 29 36.63496780395508 18.88199996948242
    vertex 29 36.73809814453125 18.98200035095215
  endloop
endfacet
facet normal -1 1.665334536937735e-16 8.855355922013971e-15
  outer loop
    vertex 29 34 15.48200035095215
    vertex 29 35 9.982000350952148
    vertex 29 34 9.982000350952148
  endloop
endfacet
facet normal -1 1.665334536937735e-16 8.855355922013971e-15
  outer loop
    vertex 29 35 9.982000350952148
    vertex 29 34 15.48200035095215
    vertex 29 35 15.48200035095215
  endloop
endfacet
facet normal -1 1.665334536937735e-16 8.855355922013971e-15
  outer loop
    vertex 29 35 15.48200035095215
    vertex 29 34 15.48200035095215
    vertex 29 33.5 15.98200035095215
  endloop
endfacet
facet normal -1 1.665334536937735e-16 8.855355922013971e-15
  outer loop
    vertex 29 35 15.48200035095215
    vertex 29 33.5 15.98200035095215
    vertex 29 35.5 15.98200035095215
  endloop
endfacet
facet normal 1 2.39307242796157e-32 9.399887781057106e-16
  outer loop
    vertex 31 35.59999847412109 18.98200035095215
    vertex 31 33.40000152587891 9.982000350952148
    vertex 31 35.59999847412109 9.982000350952148
  endloop
endfacet
facet normal 1 2.39307242796157e-32 9.399887781057106e-16
  outer loop
    vertex 31 33.40000152587891 9.982000350952148
    vertex 31 35.59999847412109 18.98200035095215
    vertex 31 33.40000152587891 18.98200035095215
  endloop
endfacet
facet normal -0.7071067690849304 -0.7071067690849304 1.22125877373571e-15
  outer loop
    vertex 27.39999961853027 32 18.98200035095215
    vertex 26 33.40000152587891 9.982000350952148
    vertex 27.39999961853027 32 9.982000350952148
  endloop
endfacet
facet normal -0.7071067690849304 -0.7071067690849304 1.22125877373571e-15
  outer loop
    vertex 26 33.40000152587891 9.982000350952148
    vertex 27.39999961853027 32 18.98200035095215
    vertex 26 33.40000152587891 18.98200035095215
  endloop
endfacet
facet normal 4.66283220073579e-16 -4.88836054629376e-16 1
  outer loop
    vertex 26 35.59999847412109 18.98200035095215
    vertex 28 37 18.98200035095215
    vertex 27.39999961853027 37 18.98200035095215
  endloop
endfacet
facet normal 4.66283220073579e-16 -4.88836054629376e-16 1
  outer loop
    vertex 28 37 18.98200035095215
    vertex 26 35.59999847412109 18.98200035095215
    vertex 27.35000038146973 36.49185943603516 18.98200035095215
  endloop
endfacet
facet normal 4.66283220073579e-16 -4.88836054629376e-16 1
  outer loop
    vertex 28 37 18.98200035095215
    vertex 27.35000038146973 36.49185943603516 18.98200035095215
    vertex 27.71335411071777 36.66129302978516 18.98200035095215
  endloop
endfacet
facet normal 4.66283220073579e-16 -4.88836054629376e-16 1
  outer loop
    vertex 28 37 18.98200035095215
    vertex 27.71335411071777 36.66129302978516 18.98200035095215
    vertex 28 36.73809814453125 18.98200035095215
  endloop
endfacet
facet normal 4.66283220073579e-16 -4.88836054629376e-16 1
  outer loop
    vertex 27.35000038146973 36.49185943603516 18.98200035095215
    vertex 26 35.59999847412109 18.98200035095215
    vertex 27.0215892791748 36.26190185546875 18.98200035095215
  endloop
endfacet
facet normal 4.66283220073579e-16 -4.88836054629376e-16 1
  outer loop
    vertex 27.0215892791748 36.26190185546875 18.98200035095215
    vertex 26 35.59999847412109 18.98200035095215
    vertex 26.73809814453125 35.97841262817383 18.98200035095215
  endloop
endfacet
facet normal 4.66283220073579e-16 -4.88836054629376e-16 1
  outer loop
    vertex 26.73809814453125 35.97841262817383 18.98200035095215
    vertex 26 35.59999847412109 18.98200035095215
    vertex 26.50814247131348 35.65000152587891 18.98200035095215
  endloop
endfacet
facet normal 4.66283220073579e-16 -4.88836054629376e-16 1
  outer loop
    vertex 26.50814247131348 35.65000152587891 18.98200035095215
    vertex 26 35.59999847412109 18.98200035095215
    vertex 26.33870697021484 35.28664779663086 18.98200035095215
  endloop
endfacet
facet normal 4.66283220073579e-16 -4.88836054629376e-16 1
  outer loop
    vertex 26.33870697021484 35.28664779663086 18.98200035095215
    vertex 26 35.59999847412109 18.98200035095215
    vertex 26.23494148254395 34.89939117431641 18.98200035095215
  endloop
endfacet
facet normal 4.66283220073579e-16 -4.88836054629376e-16 1
  outer loop
    vertex 26.23494148254395 34.89939117431641 18.98200035095215
    vertex 26 35.59999847412109 18.98200035095215
    vertex 26 33.40000152587891 18.98200035095215
  endloop
endfacet
facet normal 4.66283220073579e-16 -4.88836054629376e-16 1
  outer loop
    vertex 26.23494148254395 34.89939117431641 18.98200035095215
    vertex 26 33.40000152587891 18.98200035095215
    vertex 26.20000076293945 34.5 18.98200035095215
  endloop
endfacet
facet normal 4.66283220073579e-16 -4.88836054629376e-16 1
  outer loop
    vertex 26.20000076293945 34.5 18.98200035095215
    vertex 26 33.40000152587891 18.98200035095215
    vertex 26.23494148254395 34.10060882568359 18.98200035095215
  endloop
endfacet
facet normal 4.66283220073579e-16 -4.88836054629376e-16 1
  outer loop
    vertex 26.23494148254395 34.10060882568359 18.98200035095215
    vertex 26 33.40000152587891 18.98200035095215
    vertex 26.33870697021484 33.71335220336914 18.98200035095215
  endloop
endfacet
facet normal 4.66283220073579e-16 -4.88836054629376e-16 1
  outer loop
    vertex 26.33870697021484 33.71335220336914 18.98200035095215
    vertex 26 33.40000152587891 18.98200035095215
    vertex 26.50814247131348 33.34999847412109 18.98200035095215
  endloop
endfacet
facet normal 4.66283220073579e-16 -4.88836054629376e-16 1
  outer loop
    vertex 26.50814247131348 33.34999847412109 18.98200035095215
    vertex 26 33.40000152587891 18.98200035095215
    vertex 27.39999961853027 32 18.98200035095215
  endloop
endfacet
facet normal 4.66283220073579e-16 -4.88836054629376e-16 1
  outer loop
    vertex 26.50814247131348 33.34999847412109 18.98200035095215
    vertex 27.39999961853027 32 18.98200035095215
    vertex 26.73809814453125 33.02158737182617 18.98200035095215
  endloop
endfacet
facet normal 4.66283220073579e-16 -4.88836054629376e-16 1
  outer loop
    vertex 26.73809814453125 33.02158737182617 18.98200035095215
    vertex 27.39999961853027 32 18.98200035095215
    vertex 27.0215892791748 32.73809814453125 18.98200035095215
  endloop
endfacet
facet normal 4.66283220073579e-16 -4.88836054629376e-16 1
  outer loop
    vertex 27.0215892791748 32.73809814453125 18.98200035095215
    vertex 27.39999961853027 32 18.98200035095215
    vertex 27.35000038146973 32.50814056396484 18.98200035095215
  endloop
endfacet
facet normal 4.66283220073579e-16 -4.88836054629376e-16 1
  outer loop
    vertex 27.35000038146973 32.50814056396484 18.98200035095215
    vertex 27.39999961853027 32 18.98200035095215
    vertex 27.71335411071777 32.33870697021484 18.98200035095215
  endloop
endfacet
facet normal 4.66283220073579e-16 -4.88836054629376e-16 1
  outer loop
    vertex 27.71335411071777 32.33870697021484 18.98200035095215
    vertex 27.39999961853027 32 18.98200035095215
    vertex 28 32.26190185546875 18.98200035095215
  endloop
endfacet
facet normal 4.66283220073579e-16 -4.88836054629376e-16 1
  outer loop
    vertex 28 32.26190185546875 18.98200035095215
    vertex 27.39999961853027 32 18.98200035095215
    vertex 28 32 18.98200035095215
  endloop
endfacet
facet normal 3.890919164502125e-16 -3.056843439060652e-16 1
  outer loop
    vertex 29 36.73809814453125 18.98200035095215
    vertex 29.60000038146973 37 18.98200035095215
    vertex 29 37 18.98200035095215
  endloop
endfacet
facet normal 3.890919164502125e-16 -3.056843439060652e-16 1
  outer loop
    vertex 29.60000038146973 37 18.98200035095215
    vertex 29 36.73809814453125 18.98200035095215
    vertex 29.28664588928223 36.66129302978516 18.98200035095215
  endloop
endfacet
facet normal 3.890919164502125e-16 -3.056843439060652e-16 1
  outer loop
    vertex 29.60000038146973 37 18.98200035095215
    vertex 29.28664588928223 36.66129302978516 18.98200035095215
    vertex 29.64999961853027 36.49185943603516 18.98200035095215
  endloop
endfacet
facet normal 3.890919164502125e-16 -3.056843439060652e-16 1
  outer loop
    vertex 29.60000038146973 37 18.98200035095215
    vertex 29.64999961853027 36.49185943603516 18.98200035095215
    vertex 31 35.59999847412109 18.98200035095215
  endloop
endfacet
facet normal 3.890919164502125e-16 -3.056843439060652e-16 1
  outer loop
    vertex 31 35.59999847412109 18.98200035095215
    vertex 29.64999961853027 36.49185943603516 18.98200035095215
    vertex 29.9784107208252 36.26190185546875 18.98200035095215
  endloop
endfacet
facet normal 3.890919164502125e-16 -3.056843439060652e-16 1
  outer loop
    vertex 31 35.59999847412109 18.98200035095215
    vertex 29.9784107208252 36.26190185546875 18.98200035095215
    vertex 30.26190185546875 35.97841262817383 18.98200035095215
  endloop
endfacet
facet normal 3.890919164502125e-16 -3.056843439060652e-16 1
  outer loop
    vertex 31 35.59999847412109 18.98200035095215
    vertex 30.26190185546875 35.97841262817383 18.98200035095215
    vertex 30.49185752868652 35.65000152587891 18.98200035095215
  endloop
endfacet
facet normal 3.890919164502125e-16 -3.056843439060652e-16 1
  outer loop
    vertex 31 35.59999847412109 18.98200035095215
    vertex 30.49185752868652 35.65000152587891 18.98200035095215
    vertex 30.66129302978516 35.28664779663086 18.98200035095215
  endloop
endfacet
facet normal 3.890919164502125e-16 -3.056843439060652e-16 1
  outer loop
    vertex 31 35.59999847412109 18.98200035095215
    vertex 30.66129302978516 35.28664779663086 18.98200035095215
    vertex 30.76505851745605 34.89939117431641 18.98200035095215
  endloop
endfacet
facet normal 3.890919164502125e-16 -3.056843439060652e-16 1
  outer loop
    vertex 31 35.59999847412109 18.98200035095215
    vertex 30.76505851745605 34.89939117431641 18.98200035095215
    vertex 31 33.40000152587891 18.98200035095215
  endloop
endfacet
facet normal 3.890919164502125e-16 -3.056843439060652e-16 1
  outer loop
    vertex 31 33.40000152587891 18.98200035095215
    vertex 30.76505851745605 34.89939117431641 18.98200035095215
    vertex 30.79999923706055 34.5 18.98200035095215
  endloop
endfacet
facet normal 3.890919164502125e-16 -3.056843439060652e-16 1
  outer loop
    vertex 31 33.40000152587891 18.98200035095215
    vertex 30.79999923706055 34.5 18.98200035095215
    vertex 30.76505851745605 34.10060882568359 18.98200035095215
  endloop
endfacet
facet normal 3.890919164502125e-16 -3.056843439060652e-16 1
  outer loop
    vertex 31 33.40000152587891 18.98200035095215
    vertex 30.76505851745605 34.10060882568359 18.98200035095215
    vertex 30.66129302978516 33.71335220336914 18.98200035095215
  endloop
endfacet
facet normal 3.890919164502125e-16 -3.056843439060652e-16 1
  outer loop
    vertex 31 33.40000152587891 18.98200035095215
    vertex 30.66129302978516 33.71335220336914 18.98200035095215
    vertex 30.49185752868652 33.34999847412109 18.98200035095215
  endloop
endfacet
facet normal 3.890919164502125e-16 -3.056843439060652e-16 1
  outer loop
    vertex 31 33.40000152587891 18.98200035095215
    vertex 30.49185752868652 33.34999847412109 18.98200035095215
    vertex 29.60000038146973 32 18.98200035095215
  endloop
endfacet
facet normal 3.890919164502125e-16 -3.056843439060652e-16 1
  outer loop
    vertex 29.60000038146973 32 18.98200035095215
    vertex 30.49185752868652 33.34999847412109 18.98200035095215
    vertex 30.26190185546875 33.02158737182617 18.98200035095215
  endloop
endfacet
facet normal 3.890919164502125e-16 -3.056843439060652e-16 1
  outer loop
    vertex 29.60000038146973 32 18.98200035095215
    vertex 30.26190185546875 33.02158737182617 18.98200035095215
    vertex 29.9784107208252 32.73809814453125 18.98200035095215
  endloop
endfacet
facet normal 3.890919164502125e-16 -3.056843439060652e-16 1
  outer loop
    vertex 29.60000038146973 32 18.98200035095215
    vertex 29.9784107208252 32.73809814453125 18.98200035095215
    vertex 29.64999961853027 32.50814056396484 18.98200035095215
  endloop
endfacet
facet normal 3.890919164502125e-16 -3.056843439060652e-16 1
  outer loop
    vertex 29.60000038146973 32 18.98200035095215
    vertex 29.64999961853027 32.50814056396484 18.98200035095215
    vertex 29.28664588928223 32.33870697021484 18.98200035095215
  endloop
endfacet
facet normal 3.890919164502125e-16 -3.056843439060652e-16 1
  outer loop
    vertex 29.60000038146973 32 18.98200035095215
    vertex 29.28664588928223 32.33870697021484 18.98200035095215
    vertex 29 32.26190185546875 18.98200035095215
  endloop
endfacet
facet normal 3.890919164502125e-16 -3.056843439060652e-16 1
  outer loop
    vertex 29.60000038146973 32 18.98200035095215
    vertex 29 32.26190185546875 18.98200035095215
    vertex 29 32 18.98200035095215
  endloop
endfacet
facet normal 0.7071067690849304 -0.7071067690849304 1.86345100904781e-31
  outer loop
    vertex 29.60000038146973 32 9.982000350952148
    vertex 31 33.40000152587891 18.98200035095215
    vertex 29.60000038146973 32 18.98200035095215
  endloop
endfacet
facet normal 0.7071067690849304 -0.7071067690849304 1.86345100904781e-31
  outer loop
    vertex 31 33.40000152587891 18.98200035095215
    vertex 29.60000038146973 32 9.982000350952148
    vertex 31 33.40000152587891 9.982000350952148
  endloop
endfacet
facet normal 0.7071067690849304 0.7071067690849304 1.333614517815441e-15
  outer loop
    vertex 31 35.59999847412109 18.98200035095215
    vertex 29.60000038146973 37 9.982000350952148
    vertex 29.60000038146973 37 18.98200035095215
  endloop
endfacet
facet normal 0.7071067690849304 0.7071067690849304 1.333614517815441e-15
  outer loop
    vertex 29.60000038146973 37 9.982000350952148
    vertex 31 35.59999847412109 18.98200035095215
    vertex 31 35.59999847412109 9.982000350952148
  endloop
endfacet
facet normal -0.7071067690849304 0.7071067690849304 -4.885035048620725e-18
  outer loop
    vertex 27.39999961853027 37 18.98200035095215
    vertex 26 35.59999847412109 9.982000350952148
    vertex 26 35.59999847412109 18.98200035095215
  endloop
endfacet
facet normal -0.7071067690849304 0.7071067690849304 -4.885035048620725e-18
  outer loop
    vertex 26 35.59999847412109 9.982000350952148
    vertex 27.39999961853027 37 18.98200035095215
    vertex 27.39999961853027 37 9.982000350952148
  endloop
endfacet
endsolid com.sketchup.SketchUp.2023
